<svg xmlns="http://www.w3.org/2000/svg" xmlns:xlink="http://www.w3.org/1999/xlink" width="1920" zoomAndPan="magnify" viewBox="0 0 1440 809.999993" height="1080" preserveAspectRatio="xMidYMid meet" version="1.0"><defs><g/><clipPath id="22d6dac36a"><path d="M 598.5 283.5 L 841.5 283.5 L 841.5 526.5 L 598.5 526.5 Z M 598.5 283.5 " clip-rule="nonzero"/></clipPath><clipPath id="0d397847c4"><path d="M 720 283.5 C 652.898438 283.5 598.5 337.898438 598.5 405 C 598.5 472.101562 652.898438 526.5 720 526.5 C 787.101562 526.5 841.5 472.101562 841.5 405 C 841.5 337.898438 787.101562 283.5 720 283.5 Z M 720 283.5 " clip-rule="nonzero"/></clipPath><clipPath id="372eadbaec"><path d="M 658 356 L 820 356 L 820 526.402344 L 658 526.402344 Z M 658 356 " clip-rule="nonzero"/></clipPath></defs><rect x="-144" width="1728" fill="#ffffff" y="-80.999999" height="971.999992" fill-opacity="1"/><rect x="-144" width="1728" fill="#5ce1e6" y="-80.999999" height="971.999992" fill-opacity="1"/><g clip-path="url(#22d6dac36a)"><g clip-path="url(#0d397847c4)"><path fill="#ffde59" d="M 598.5 283.5 L 841.5 283.5 L 841.5 526.5 L 598.5 526.5 Z M 598.5 283.5 " fill-opacity="1" fill-rule="nonzero"/></g></g><g clip-path="url(#372eadbaec)"><path fill="#000000" d="M 681.6875 433.109375 C 696.863281 448.296875 707.699219 463.484375 718.539062 483.007812 C 769.117188 387.546875 830.53125 344.152344 817.527344 359.339844 C 776.339844 412.132812 748.164062 465.652344 720.707031 526.402344 C 704.808594 497.472656 684.578125 459.144531 660.011719 451.1875 C 652.789062 443.957031 670.128906 426.597656 681.6875 433.109375 Z M 681.6875 433.109375 " fill-opacity="1" fill-rule="nonzero"/></g><g fill="#000000" fill-opacity="1"><g transform="translate(618.785255, 435.649846)"><g><path d="M 28.90625 0 L 16.921875 0 L 16.921875 -46.53125 L 1.578125 -46.53125 L 1.578125 -56.5 L 44.25 -56.5 L 44.25 -46.53125 L 28.90625 -46.53125 Z M 28.90625 0 "/></g></g></g><g fill="#000000" fill-opacity="1"><g transform="translate(664.616485, 435.649846)"><g><path d="M 15.578125 -21.671875 C 15.578125 -17.398438 16.273438 -14.164062 17.671875 -11.96875 C 19.078125 -9.78125 21.363281 -8.6875 24.53125 -8.6875 C 27.675781 -8.6875 29.9375 -9.773438 31.3125 -11.953125 C 32.695312 -14.128906 33.390625 -17.367188 33.390625 -21.671875 C 33.390625 -25.953125 32.691406 -29.160156 31.296875 -31.296875 C 29.910156 -33.441406 27.632812 -34.515625 24.46875 -34.515625 C 21.320312 -34.515625 19.050781 -33.445312 17.65625 -31.3125 C 16.269531 -29.1875 15.578125 -25.972656 15.578125 -21.671875 Z M 45.4375 -21.671875 C 45.4375 -14.640625 43.582031 -9.140625 39.875 -5.171875 C 36.164062 -1.210938 31.003906 0.765625 24.390625 0.765625 C 20.234375 0.765625 16.570312 -0.140625 13.40625 -1.953125 C 10.238281 -3.765625 7.804688 -6.367188 6.109375 -9.765625 C 4.410156 -13.171875 3.5625 -17.140625 3.5625 -21.671875 C 3.5625 -28.734375 5.398438 -34.222656 9.078125 -38.140625 C 12.765625 -42.054688 17.941406 -44.015625 24.609375 -44.015625 C 28.765625 -44.015625 32.425781 -43.113281 35.59375 -41.3125 C 38.757812 -39.507812 41.191406 -36.921875 42.890625 -33.546875 C 44.585938 -30.171875 45.4375 -26.210938 45.4375 -21.671875 Z M 45.4375 -21.671875 "/></g></g></g><g fill="#000000" fill-opacity="1"><g transform="translate(713.616485, 435.649846)"><g><path d="M 53.984375 -28.78125 C 53.984375 -19.488281 51.335938 -12.367188 46.046875 -7.421875 C 40.753906 -2.472656 33.109375 0 23.109375 0 L 7.109375 0 L 7.109375 -56.5 L 24.84375 -56.5 C 34.070312 -56.5 41.234375 -54.0625 46.328125 -49.1875 C 51.429688 -44.320312 53.984375 -37.519531 53.984375 -28.78125 Z M 41.546875 -28.484375 C 41.546875 -40.617188 36.1875 -46.6875 25.46875 -46.6875 L 19.09375 -46.6875 L 19.09375 -9.890625 L 24.234375 -9.890625 C 35.773438 -9.890625 41.546875 -16.085938 41.546875 -28.484375 Z M 41.546875 -28.484375 "/></g></g></g><g fill="#000000" fill-opacity="1"><g transform="translate(772.200081, 435.649846)"><g><path d="M 15.578125 -21.671875 C 15.578125 -17.398438 16.273438 -14.164062 17.671875 -11.96875 C 19.078125 -9.78125 21.363281 -8.6875 24.53125 -8.6875 C 27.675781 -8.6875 29.9375 -9.773438 31.3125 -11.953125 C 32.695312 -14.128906 33.390625 -17.367188 33.390625 -21.671875 C 33.390625 -25.953125 32.691406 -29.160156 31.296875 -31.296875 C 29.910156 -33.441406 27.632812 -34.515625 24.46875 -34.515625 C 21.320312 -34.515625 19.050781 -33.445312 17.65625 -31.3125 C 16.269531 -29.1875 15.578125 -25.972656 15.578125 -21.671875 Z M 45.4375 -21.671875 C 45.4375 -14.640625 43.582031 -9.140625 39.875 -5.171875 C 36.164062 -1.210938 31.003906 0.765625 24.390625 0.765625 C 20.234375 0.765625 16.570312 -0.140625 13.40625 -1.953125 C 10.238281 -3.765625 7.804688 -6.367188 6.109375 -9.765625 C 4.410156 -13.171875 3.5625 -17.140625 3.5625 -21.671875 C 3.5625 -28.734375 5.398438 -34.222656 9.078125 -38.140625 C 12.765625 -42.054688 17.941406 -44.015625 24.609375 -44.015625 C 28.765625 -44.015625 32.425781 -43.113281 35.59375 -41.3125 C 38.757812 -39.507812 41.191406 -36.921875 42.890625 -33.546875 C 44.585938 -30.171875 45.4375 -26.210938 45.4375 -21.671875 Z M 45.4375 -21.671875 "/></g></g></g></svg>